<svg xmlns="http://www.w3.org/2000/svg" version="1.1" xmlns:xlink="http://www.w3.org/1999/xlink" xmlns:svgjs="http://svgjs.com/svgjs" width="1440" height="560" preserveAspectRatio="none" viewBox="0 0 1440 560"><g mask="url(&quot;#SvgjsMask1028&quot;)" fill="none"><rect width="1440" height="560" x="0" y="0" fill="rgba(31, 41, 55, 1)"></rect><g mask="url(&quot;#SvgjsMask1029&quot;)"><path d="M883.5 480.5L1038.5 325.5L1038.5 77.5L1100.5 15.5L1224.5 15.5" stroke-width="5.17" stroke="rgba(29, 103, 26, 1)"></path><path d="M875.75 480.5 a7.75 7.75 0 1 0 15.5 0 a7.75 7.75 0 1 0 -15.5 0zM1216.75 15.5 a7.75 7.75 0 1 0 15.5 0 a7.75 7.75 0 1 0 -15.5 0z" fill="rgba(29, 103, 26, 1)"></path><path d="M1255.5 573.5L1007.5 573.5L914.5 480.5" stroke-width="5.17" stroke="rgba(29, 103, 26, 1)"></path><path d="M1247.75 573.5 a7.75 7.75 0 1 0 15.5 0 a7.75 7.75 0 1 0 -15.5 0zM906.75 480.5 a7.75 7.75 0 1 0 15.5 0 a7.75 7.75 0 1 0 -15.5 0z" fill="rgba(29, 103, 26, 1)"></path><path d="M1441.5 542.5L1410.5 573.5L1286.5 573.5L1069.5 356.5L1038.5 356.5L945.5 449.5L945.5 480.5L1007.5 542.5" stroke-width="5.17" stroke="rgba(29, 103, 26, 1)"></path><path d="M1433.75 542.5 a7.75 7.75 0 1 0 15.5 0 a7.75 7.75 0 1 0 -15.5 0zM999.75 542.5 a7.75 7.75 0 1 0 15.5 0 a7.75 7.75 0 1 0 -15.5 0z" fill="rgba(29, 103, 26, 1)"></path><path d="M1348.5 325.5L1441.5 418.5L1441.5 511.5L1410.5 542.5L1379.5 542.5L1348.5 511.5L1348.5 356.5L1286.5 294.5L1193.5 294.5" stroke-width="5.17" stroke="rgba(29, 103, 26, 1)"></path><path d="M1340.75 325.5 a7.75 7.75 0 1 0 15.5 0 a7.75 7.75 0 1 0 -15.5 0zM1185.75 294.5 a7.75 7.75 0 1 0 15.5 0 a7.75 7.75 0 1 0 -15.5 0z" fill="rgba(29, 103, 26, 1)"></path><path d="M1100.5 542.5L1038.5 542.5L976.5 480.5L976.5 449.5L1038.5 387.5L1069.5 387.5L1224.5 542.5" stroke-width="5.17" stroke="rgba(29, 103, 26, 1)"></path><path d="M1092.75 542.5 a7.75 7.75 0 1 0 15.5 0 a7.75 7.75 0 1 0 -15.5 0zM1216.75 542.5 a7.75 7.75 0 1 0 15.5 0 a7.75 7.75 0 1 0 -15.5 0z" fill="rgba(29, 103, 26, 1)"></path><path d="M976.5 232.5L976.5 15.5" stroke-width="5.17" stroke="rgba(29, 103, 26, 1)"></path><path d="M968.75 232.5 a7.75 7.75 0 1 0 15.5 0 a7.75 7.75 0 1 0 -15.5 0zM968.75 15.5 a7.75 7.75 0 1 0 15.5 0 a7.75 7.75 0 1 0 -15.5 0z" fill="rgba(29, 103, 26, 1)"></path><path d="M1100.5 480.5L1131.5 511.5L1131.5 542.5" stroke-width="5.17" stroke="rgba(29, 103, 26, 1)"></path><path d="M1092.75 480.5 a7.75 7.75 0 1 0 15.5 0 a7.75 7.75 0 1 0 -15.5 0zM1123.75 542.5 a7.75 7.75 0 1 0 15.5 0 a7.75 7.75 0 1 0 -15.5 0z" fill="rgba(29, 103, 26, 1)"></path><path d="M1193.5 46.5L1441.5 46.5" stroke-width="5.17" stroke="rgba(29, 103, 26, 1)"></path><path d="M1185.75 46.5 a7.75 7.75 0 1 0 15.5 0 a7.75 7.75 0 1 0 -15.5 0zM1433.75 46.5 a7.75 7.75 0 1 0 15.5 0 a7.75 7.75 0 1 0 -15.5 0z" fill="rgba(29, 103, 26, 1)"></path><path d="M759.5 170.5L635.5 170.5L232.5 573.5L170.5 573.5" stroke-width="5.17" stroke="rgba(29, 103, 26, 1)"></path><path d="M751.75 170.5 a7.75 7.75 0 1 0 15.5 0 a7.75 7.75 0 1 0 -15.5 0zM162.75 573.5 a7.75 7.75 0 1 0 15.5 0 a7.75 7.75 0 1 0 -15.5 0z" fill="rgba(29, 103, 26, 1)"></path><path d="M1131.5 170.5L1224.5 263.5L1441.5 263.5" stroke-width="5.17" stroke="rgba(29, 103, 26, 1)"></path><path d="M1123.75 170.5 a7.75 7.75 0 1 0 15.5 0 a7.75 7.75 0 1 0 -15.5 0zM1433.75 263.5 a7.75 7.75 0 1 0 15.5 0 a7.75 7.75 0 1 0 -15.5 0z" fill="rgba(29, 103, 26, 1)"></path><path d="M170.5 480.5L170.5 542.5L139.5 573.5L15.5 573.5" stroke-width="5.17" stroke="rgba(29, 103, 26, 1)"></path><path d="M162.75 480.5 a7.75 7.75 0 1 0 15.5 0 a7.75 7.75 0 1 0 -15.5 0zM7.75 573.5 a7.75 7.75 0 1 0 15.5 0 a7.75 7.75 0 1 0 -15.5 0z" fill="rgba(29, 103, 26, 1)"></path><path d="M201.5 418.5L201.5 542.5" stroke-width="5.17" stroke="rgba(29, 103, 26, 1)"></path><path d="M193.75 418.5 a7.75 7.75 0 1 0 15.5 0 a7.75 7.75 0 1 0 -15.5 0zM193.75 542.5 a7.75 7.75 0 1 0 15.5 0 a7.75 7.75 0 1 0 -15.5 0z" fill="rgba(29, 103, 26, 1)"></path><path d="M108.5 232.5L15.5 139.5L15.5 15.5" stroke-width="5.17" stroke="rgba(29, 103, 26, 1)"></path><path d="M100.75 232.5 a7.75 7.75 0 1 0 15.5 0 a7.75 7.75 0 1 0 -15.5 0zM7.75 15.5 a7.75 7.75 0 1 0 15.5 0 a7.75 7.75 0 1 0 -15.5 0z" fill="rgba(29, 103, 26, 1)"></path><path d="M15.5 325.5L77.5 263.5L77.5 232.5L15.5 170.5" stroke-width="5.17" stroke="rgba(29, 103, 26, 1)"></path><path d="M7.75 325.5 a7.75 7.75 0 1 0 15.5 0 a7.75 7.75 0 1 0 -15.5 0zM7.75 170.5 a7.75 7.75 0 1 0 15.5 0 a7.75 7.75 0 1 0 -15.5 0z" fill="rgba(29, 103, 26, 1)"></path><path d="M573.5 170.5L232.5 511.5L232.5 542.5" stroke-width="5.17" stroke="rgba(29, 103, 26, 1)"></path><path d="M565.75 170.5 a7.75 7.75 0 1 0 15.5 0 a7.75 7.75 0 1 0 -15.5 0zM224.75 542.5 a7.75 7.75 0 1 0 15.5 0 a7.75 7.75 0 1 0 -15.5 0z" fill="rgba(29, 103, 26, 1)"></path><path d="M883.5 511.5L790.5 418.5L418.5 418.5L294.5 542.5" stroke-width="5.17" stroke="rgba(29, 103, 26, 1)"></path><path d="M875.75 511.5 a7.75 7.75 0 1 0 15.5 0 a7.75 7.75 0 1 0 -15.5 0zM286.75 542.5 a7.75 7.75 0 1 0 15.5 0 a7.75 7.75 0 1 0 -15.5 0z" fill="rgba(29, 103, 26, 1)"></path><path d="M387.5 480.5L511.5 480.5L573.5 542.5L573.5 573.5" stroke-width="5.17" stroke="rgba(29, 103, 26, 1)"></path><path d="M379.75 480.5 a7.75 7.75 0 1 0 15.5 0 a7.75 7.75 0 1 0 -15.5 0zM565.75 573.5 a7.75 7.75 0 1 0 15.5 0 a7.75 7.75 0 1 0 -15.5 0z" fill="rgba(29, 103, 26, 1)"></path><path d="M511.5 325.5L635.5 201.5L790.5 201.5L945.5 46.5L945.5 15.5" stroke-width="5.17" stroke="rgba(29, 103, 26, 1)"></path><path d="M503.75 325.5 a7.75 7.75 0 1 0 15.5 0 a7.75 7.75 0 1 0 -15.5 0zM937.75 15.5 a7.75 7.75 0 1 0 15.5 0 a7.75 7.75 0 1 0 -15.5 0z" fill="rgba(29, 103, 26, 1)"></path><path d="M1193.5 418.5L1317.5 418.5" stroke-width="5.17" stroke="rgba(29, 103, 26, 1)"></path><path d="M1185.75 418.5 a7.75 7.75 0 1 0 15.5 0 a7.75 7.75 0 1 0 -15.5 0zM1309.75 418.5 a7.75 7.75 0 1 0 15.5 0 a7.75 7.75 0 1 0 -15.5 0z" fill="rgba(29, 103, 26, 1)"></path><path d="M604.5 46.5L914.5 46.5" stroke-width="5.17" stroke="rgba(29, 103, 26, 1)"></path><path d="M596.75 46.5 a7.75 7.75 0 1 0 15.5 0 a7.75 7.75 0 1 0 -15.5 0zM906.75 46.5 a7.75 7.75 0 1 0 15.5 0 a7.75 7.75 0 1 0 -15.5 0z" fill="rgba(29, 103, 26, 1)"></path><path d="M77.5 77.5L356.5 356.5" stroke-width="5.17" stroke="rgba(29, 103, 26, 1)"></path><path d="M69.75 77.5 a7.75 7.75 0 1 0 15.5 0 a7.75 7.75 0 1 0 -15.5 0zM348.75 356.5 a7.75 7.75 0 1 0 15.5 0 a7.75 7.75 0 1 0 -15.5 0z" fill="rgba(29, 103, 26, 1)"></path><path d="M852.5 170.5L883.5 170.5L1007.5 294.5L1007.5 325.5L883.5 449.5L852.5 449.5L790.5 387.5L604.5 387.5" stroke-width="5.17" stroke="rgba(29, 103, 26, 1)"></path><path d="M844.75 170.5 a7.75 7.75 0 1 0 15.5 0 a7.75 7.75 0 1 0 -15.5 0zM596.75 387.5 a7.75 7.75 0 1 0 15.5 0 a7.75 7.75 0 1 0 -15.5 0z" fill="rgba(29, 103, 26, 1)"></path><path d="M945.5 263.5L697.5 263.5L573.5 387.5L449.5 387.5" stroke-width="5.17" stroke="rgba(29, 103, 26, 1)"></path><path d="M937.75 263.5 a7.75 7.75 0 1 0 15.5 0 a7.75 7.75 0 1 0 -15.5 0zM441.75 387.5 a7.75 7.75 0 1 0 15.5 0 a7.75 7.75 0 1 0 -15.5 0z" fill="rgba(29, 103, 26, 1)"></path><path d="M77.5 418.5L139.5 480.5L139.5 542.5" stroke-width="5.17" stroke="rgba(29, 103, 26, 1)"></path><path d="M69.75 418.5 a7.75 7.75 0 1 0 15.5 0 a7.75 7.75 0 1 0 -15.5 0zM131.75 542.5 a7.75 7.75 0 1 0 15.5 0 a7.75 7.75 0 1 0 -15.5 0z" fill="rgba(29, 103, 26, 1)"></path><path d="M294.5 263.5L449.5 263.5L573.5 139.5L821.5 139.5L883.5 77.5" stroke-width="5.17" stroke="rgba(29, 103, 26, 1)"></path><path d="M286.75 263.5 a7.75 7.75 0 1 0 15.5 0 a7.75 7.75 0 1 0 -15.5 0zM875.75 77.5 a7.75 7.75 0 1 0 15.5 0 a7.75 7.75 0 1 0 -15.5 0z" fill="rgba(29, 103, 26, 1)"></path><path d="M914.5 356.5L945.5 356.5L976.5 325.5L976.5 294.5" stroke-width="5.17" stroke="rgba(29, 103, 26, 1)"></path><path d="M906.75 356.5 a7.75 7.75 0 1 0 15.5 0 a7.75 7.75 0 1 0 -15.5 0zM968.75 294.5 a7.75 7.75 0 1 0 15.5 0 a7.75 7.75 0 1 0 -15.5 0z" fill="rgba(29, 103, 26, 1)"></path><path d="M759.5 325.5L728.5 356.5L635.5 356.5" stroke-width="5.17" stroke="rgba(29, 103, 26, 1)"></path><path d="M751.75 325.5 a7.75 7.75 0 1 0 15.5 0 a7.75 7.75 0 1 0 -15.5 0zM627.75 356.5 a7.75 7.75 0 1 0 15.5 0 a7.75 7.75 0 1 0 -15.5 0z" fill="rgba(29, 103, 26, 1)"></path><path d="M449.5 542.5L480.5 573.5L542.5 573.5" stroke-width="5.17" stroke="rgba(29, 103, 26, 1)"></path><path d="M441.75 542.5 a7.75 7.75 0 1 0 15.5 0 a7.75 7.75 0 1 0 -15.5 0zM534.75 573.5 a7.75 7.75 0 1 0 15.5 0 a7.75 7.75 0 1 0 -15.5 0z" fill="rgba(29, 103, 26, 1)"></path><path d="M728.5 108.5L821.5 108.5L852.5 77.5" stroke-width="5.17" stroke="rgba(29, 103, 26, 1)"></path><path d="M720.75 108.5 a7.75 7.75 0 1 0 15.5 0 a7.75 7.75 0 1 0 -15.5 0zM844.75 77.5 a7.75 7.75 0 1 0 15.5 0 a7.75 7.75 0 1 0 -15.5 0z" fill="rgba(29, 103, 26, 1)"></path><path d="M77.5 46.5L263.5 46.5L294.5 15.5L666.5 15.5" stroke-width="5.17" stroke="rgba(29, 103, 26, 1)"></path><path d="M69.75 46.5 a7.75 7.75 0 1 0 15.5 0 a7.75 7.75 0 1 0 -15.5 0zM658.75 15.5 a7.75 7.75 0 1 0 15.5 0 a7.75 7.75 0 1 0 -15.5 0z" fill="rgba(29, 103, 26, 1)"></path><path d="M46.5 356.5L139.5 449.5L170.5 449.5" stroke-width="5.17" stroke="rgba(29, 103, 26, 1)"></path><path d="M38.75 356.5 a7.75 7.75 0 1 0 15.5 0 a7.75 7.75 0 1 0 -15.5 0zM162.75 449.5 a7.75 7.75 0 1 0 15.5 0 a7.75 7.75 0 1 0 -15.5 0z" fill="rgba(29, 103, 26, 1)"></path><path d="M821.5 77.5L232.5 77.5" stroke-width="5.17" stroke="rgba(29, 103, 26, 1)"></path><path d="M813.75 77.5 a7.75 7.75 0 1 0 15.5 0 a7.75 7.75 0 1 0 -15.5 0zM224.75 77.5 a7.75 7.75 0 1 0 15.5 0 a7.75 7.75 0 1 0 -15.5 0z" fill="rgba(29, 103, 26, 1)"></path><path d="M1100.5 356.5L1193.5 263.5" stroke-width="5.17" stroke="rgba(29, 103, 26, 1)"></path><path d="M1092.75 356.5 a7.75 7.75 0 1 0 15.5 0 a7.75 7.75 0 1 0 -15.5 0zM1185.75 263.5 a7.75 7.75 0 1 0 15.5 0 a7.75 7.75 0 1 0 -15.5 0z" fill="rgba(29, 103, 26, 1)"></path><path d="M1441.5 170.5L1410.5 170.5L1348.5 232.5L1224.5 232.5L1069.5 77.5" stroke-width="5.17" stroke="rgba(29, 103, 26, 1)"></path><path d="M1433.75 170.5 a7.75 7.75 0 1 0 15.5 0 a7.75 7.75 0 1 0 -15.5 0zM1061.75 77.5 a7.75 7.75 0 1 0 15.5 0 a7.75 7.75 0 1 0 -15.5 0z" fill="rgba(29, 103, 26, 1)"></path><path d="M1379.5 77.5L1255.5 201.5L1224.5 201.5L1100.5 77.5L1100.5 46.5" stroke-width="5.17" stroke="rgba(29, 103, 26, 1)"></path><path d="M1371.75 77.5 a7.75 7.75 0 1 0 15.5 0 a7.75 7.75 0 1 0 -15.5 0zM1092.75 46.5 a7.75 7.75 0 1 0 15.5 0 a7.75 7.75 0 1 0 -15.5 0z" fill="rgba(29, 103, 26, 1)"></path><path d="M852.5 294.5L852.5 418.5" stroke-width="5.17" stroke="rgba(29, 103, 26, 1)"></path><path d="M844.75 294.5 a7.75 7.75 0 1 0 15.5 0 a7.75 7.75 0 1 0 -15.5 0zM844.75 418.5 a7.75 7.75 0 1 0 15.5 0 a7.75 7.75 0 1 0 -15.5 0z" fill="rgba(29, 103, 26, 1)"></path><path d="M77.5 139.5L108.5 139.5L325.5 356.5L325.5 387.5L232.5 480.5" stroke-width="5.17" stroke="rgba(29, 103, 26, 1)"></path><path d="M69.75 139.5 a7.75 7.75 0 1 0 15.5 0 a7.75 7.75 0 1 0 -15.5 0zM224.75 480.5 a7.75 7.75 0 1 0 15.5 0 a7.75 7.75 0 1 0 -15.5 0z" fill="rgba(29, 103, 26, 1)"></path><path d="M1224.5 139.5L1224.5 77.5" stroke-width="5.17" stroke="rgba(29, 103, 26, 1)"></path><path d="M1216.75 139.5 a7.75 7.75 0 1 0 15.5 0 a7.75 7.75 0 1 0 -15.5 0zM1216.75 77.5 a7.75 7.75 0 1 0 15.5 0 a7.75 7.75 0 1 0 -15.5 0z" fill="rgba(29, 103, 26, 1)"></path><path d="M232.5 325.5L232.5 294.5L108.5 170.5" stroke-width="5.17" stroke="rgba(29, 103, 26, 1)"></path><path d="M224.75 325.5 a7.75 7.75 0 1 0 15.5 0 a7.75 7.75 0 1 0 -15.5 0zM100.75 170.5 a7.75 7.75 0 1 0 15.5 0 a7.75 7.75 0 1 0 -15.5 0z" fill="rgba(29, 103, 26, 1)"></path><path d="M511.5 542.5L480.5 511.5L356.5 511.5L294.5 573.5" stroke-width="5.17" stroke="rgba(29, 103, 26, 1)"></path><path d="M503.75 542.5 a7.75 7.75 0 1 0 15.5 0 a7.75 7.75 0 1 0 -15.5 0zM286.75 573.5 a7.75 7.75 0 1 0 15.5 0 a7.75 7.75 0 1 0 -15.5 0z" fill="rgba(29, 103, 26, 1)"></path><path d="M759.5 294.5L728.5 325.5L666.5 325.5" stroke-width="5.17" stroke="rgba(29, 103, 26, 1)"></path><path d="M751.75 294.5 a7.75 7.75 0 1 0 15.5 0 a7.75 7.75 0 1 0 -15.5 0zM658.75 325.5 a7.75 7.75 0 1 0 15.5 0 a7.75 7.75 0 1 0 -15.5 0z" fill="rgba(29, 103, 26, 1)"></path><path d="M418.5 139.5L480.5 201.5" stroke-width="5.17" stroke="rgba(29, 103, 26, 1)"></path><path d="M410.75 139.5 a7.75 7.75 0 1 0 15.5 0 a7.75 7.75 0 1 0 -15.5 0zM472.75 201.5 a7.75 7.75 0 1 0 15.5 0 a7.75 7.75 0 1 0 -15.5 0z" fill="rgba(29, 103, 26, 1)"></path><path d="M790.5 449.5L759.5 480.5L542.5 480.5L511.5 449.5L418.5 449.5" stroke-width="5.17" stroke="rgba(29, 103, 26, 1)"></path><path d="M782.75 449.5 a7.75 7.75 0 1 0 15.5 0 a7.75 7.75 0 1 0 -15.5 0zM410.75 449.5 a7.75 7.75 0 1 0 15.5 0 a7.75 7.75 0 1 0 -15.5 0z" fill="rgba(29, 103, 26, 1)"></path><path d="M1193.5 325.5L1162.5 325.5L1131.5 356.5L1131.5 387.5L1162.5 418.5" stroke-width="5.17" stroke="rgba(29, 103, 26, 1)"></path><path d="M1185.75 325.5 a7.75 7.75 0 1 0 15.5 0 a7.75 7.75 0 1 0 -15.5 0zM1154.75 418.5 a7.75 7.75 0 1 0 15.5 0 a7.75 7.75 0 1 0 -15.5 0z" fill="rgba(29, 103, 26, 1)"></path><path d="M139.5 263.5L77.5 325.5L46.5 325.5" stroke-width="5.17" stroke="rgba(29, 103, 26, 1)"></path><path d="M131.75 263.5 a7.75 7.75 0 1 0 15.5 0 a7.75 7.75 0 1 0 -15.5 0zM38.75 325.5 a7.75 7.75 0 1 0 15.5 0 a7.75 7.75 0 1 0 -15.5 0z" fill="rgba(29, 103, 26, 1)"></path><path d="M201.5 294.5L139.5 294.5L77.5 356.5" stroke-width="5.17" stroke="rgba(29, 103, 26, 1)"></path><path d="M193.75 294.5 a7.75 7.75 0 1 0 15.5 0 a7.75 7.75 0 1 0 -15.5 0zM69.75 356.5 a7.75 7.75 0 1 0 15.5 0 a7.75 7.75 0 1 0 -15.5 0z" fill="rgba(29, 103, 26, 1)"></path><path d="M1379.5 387.5L1379.5 511.5" stroke-width="5.17" stroke="rgba(29, 103, 26, 1)"></path><path d="M1371.75 387.5 a7.75 7.75 0 1 0 15.5 0 a7.75 7.75 0 1 0 -15.5 0zM1371.75 511.5 a7.75 7.75 0 1 0 15.5 0 a7.75 7.75 0 1 0 -15.5 0z" fill="rgba(29, 103, 26, 1)"></path><path d="M201.5 139.5L294.5 232.5L449.5 232.5" stroke-width="5.17" stroke="rgba(29, 103, 26, 1)"></path><path d="M193.75 139.5 a7.75 7.75 0 1 0 15.5 0 a7.75 7.75 0 1 0 -15.5 0zM441.75 232.5 a7.75 7.75 0 1 0 15.5 0 a7.75 7.75 0 1 0 -15.5 0z" fill="rgba(29, 103, 26, 1)"></path><path d="M883.5 325.5L883.5 418.5" stroke-width="5.17" stroke="rgba(29, 103, 26, 1)"></path><path d="M875.75 325.5 a7.75 7.75 0 1 0 15.5 0 a7.75 7.75 0 1 0 -15.5 0zM875.75 418.5 a7.75 7.75 0 1 0 15.5 0 a7.75 7.75 0 1 0 -15.5 0z" fill="rgba(29, 103, 26, 1)"></path><path d="M1410.5 325.5L1379.5 325.5L1348.5 294.5L1317.5 294.5" stroke-width="5.17" stroke="rgba(29, 103, 26, 1)"></path><path d="M1402.75 325.5 a7.75 7.75 0 1 0 15.5 0 a7.75 7.75 0 1 0 -15.5 0zM1309.75 294.5 a7.75 7.75 0 1 0 15.5 0 a7.75 7.75 0 1 0 -15.5 0z" fill="rgba(29, 103, 26, 1)"></path><path d="M480.5 139.5L449.5 108.5L294.5 108.5L263.5 139.5L232.5 139.5L170.5 77.5L108.5 77.5" stroke-width="5.17" stroke="rgba(29, 103, 26, 1)"></path><path d="M472.75 139.5 a7.75 7.75 0 1 0 15.5 0 a7.75 7.75 0 1 0 -15.5 0zM100.75 77.5 a7.75 7.75 0 1 0 15.5 0 a7.75 7.75 0 1 0 -15.5 0z" fill="rgba(29, 103, 26, 1)"></path><path d="M1255.5 139.5L1286.5 139.5L1348.5 77.5" stroke-width="5.17" stroke="rgba(29, 103, 26, 1)"></path><path d="M1247.75 139.5 a7.75 7.75 0 1 0 15.5 0 a7.75 7.75 0 1 0 -15.5 0zM1340.75 77.5 a7.75 7.75 0 1 0 15.5 0 a7.75 7.75 0 1 0 -15.5 0z" fill="rgba(29, 103, 26, 1)"></path><path d="M573.5 294.5L635.5 232.5L883.5 232.5" stroke-width="5.17" stroke="rgba(29, 103, 26, 1)"></path><path d="M565.75 294.5 a7.75 7.75 0 1 0 15.5 0 a7.75 7.75 0 1 0 -15.5 0zM875.75 232.5 a7.75 7.75 0 1 0 15.5 0 a7.75 7.75 0 1 0 -15.5 0z" fill="rgba(29, 103, 26, 1)"></path><path d="M1317.5 480.5L1317.5 542.5" stroke-width="5.17" stroke="rgba(29, 103, 26, 1)"></path><path d="M1309.75 480.5 a7.75 7.75 0 1 0 15.5 0 a7.75 7.75 0 1 0 -15.5 0zM1309.75 542.5 a7.75 7.75 0 1 0 15.5 0 a7.75 7.75 0 1 0 -15.5 0z" fill="rgba(29, 103, 26, 1)"></path><path d="M232.5 387.5L263.5 356.5L294.5 356.5" stroke-width="5.17" stroke="rgba(29, 103, 26, 1)"></path><path d="M224.75 387.5 a7.75 7.75 0 1 0 15.5 0 a7.75 7.75 0 1 0 -15.5 0zM286.75 356.5 a7.75 7.75 0 1 0 15.5 0 a7.75 7.75 0 1 0 -15.5 0z" fill="rgba(29, 103, 26, 1)"></path><path d="M542.5 139.5L573.5 108.5L635.5 108.5" stroke-width="5.17" stroke="rgba(29, 103, 26, 1)"></path><path d="M534.75 139.5 a7.75 7.75 0 1 0 15.5 0 a7.75 7.75 0 1 0 -15.5 0zM627.75 108.5 a7.75 7.75 0 1 0 15.5 0 a7.75 7.75 0 1 0 -15.5 0z" fill="rgba(29, 103, 26, 1)"></path><path d="M1348.5 170.5L1348.5 139.5L1410.5 77.5" stroke-width="5.17" stroke="rgba(29, 103, 26, 1)"></path><path d="M1340.75 170.5 a7.75 7.75 0 1 0 15.5 0 a7.75 7.75 0 1 0 -15.5 0zM1402.75 77.5 a7.75 7.75 0 1 0 15.5 0 a7.75 7.75 0 1 0 -15.5 0z" fill="rgba(29, 103, 26, 1)"></path><path d="M945.5 139.5L945.5 77.5" stroke-width="5.17" stroke="rgba(29, 103, 26, 1)"></path><path d="M937.75 139.5 a7.75 7.75 0 1 0 15.5 0 a7.75 7.75 0 1 0 -15.5 0zM937.75 77.5 a7.75 7.75 0 1 0 15.5 0 a7.75 7.75 0 1 0 -15.5 0z" fill="rgba(29, 103, 26, 1)"></path><path d="M263.5 15.5L77.5 15.5L46.5 46.5L46.5 139.5" stroke-width="5.17" stroke="rgba(29, 103, 26, 1)"></path><path d="M255.75 15.5 a7.75 7.75 0 1 0 15.5 0 a7.75 7.75 0 1 0 -15.5 0zM38.75 139.5 a7.75 7.75 0 1 0 15.5 0 a7.75 7.75 0 1 0 -15.5 0z" fill="rgba(29, 103, 26, 1)"></path><path d="M604.5 325.5L573.5 356.5L542.5 356.5" stroke-width="5.17" stroke="rgba(29, 103, 26, 1)"></path><path d="M596.75 325.5 a7.75 7.75 0 1 0 15.5 0 a7.75 7.75 0 1 0 -15.5 0zM534.75 356.5 a7.75 7.75 0 1 0 15.5 0 a7.75 7.75 0 1 0 -15.5 0z" fill="rgba(29, 103, 26, 1)"></path><path d="M1069.5 232.5L1162.5 232.5" stroke-width="5.17" stroke="rgba(29, 103, 26, 1)"></path><path d="M1061.75 232.5 a7.75 7.75 0 1 0 15.5 0 a7.75 7.75 0 1 0 -15.5 0zM1154.75 232.5 a7.75 7.75 0 1 0 15.5 0 a7.75 7.75 0 1 0 -15.5 0z" fill="rgba(29, 103, 26, 1)"></path><path d="M1162.5 263.5L1069.5 263.5" stroke-width="5.17" stroke="rgba(29, 103, 26, 1)"></path><path d="M1154.75 263.5 a7.75 7.75 0 1 0 15.5 0 a7.75 7.75 0 1 0 -15.5 0zM1061.75 263.5 a7.75 7.75 0 1 0 15.5 0 a7.75 7.75 0 1 0 -15.5 0z" fill="rgba(29, 103, 26, 1)"></path><path d="M728.5 15.5L914.5 15.5" stroke-width="5.17" stroke="rgba(29, 103, 26, 1)"></path><path d="M720.75 15.5 a7.75 7.75 0 1 0 15.5 0 a7.75 7.75 0 1 0 -15.5 0zM906.75 15.5 a7.75 7.75 0 1 0 15.5 0 a7.75 7.75 0 1 0 -15.5 0z" fill="rgba(29, 103, 26, 1)"></path><path d="M77.5 449.5L15.5 511.5L15.5 542.5" stroke-width="5.17" stroke="rgba(29, 103, 26, 1)"></path><path d="M69.75 449.5 a7.75 7.75 0 1 0 15.5 0 a7.75 7.75 0 1 0 -15.5 0zM7.75 542.5 a7.75 7.75 0 1 0 15.5 0 a7.75 7.75 0 1 0 -15.5 0z" fill="rgba(29, 103, 26, 1)"></path><path d="M1162.5 108.5L1162.5 46.5" stroke-width="5.17" stroke="rgba(29, 103, 26, 1)"></path><path d="M1154.75 108.5 a7.75 7.75 0 1 0 15.5 0 a7.75 7.75 0 1 0 -15.5 0zM1154.75 46.5 a7.75 7.75 0 1 0 15.5 0 a7.75 7.75 0 1 0 -15.5 0z" fill="rgba(29, 103, 26, 1)"></path><path d="M356.5 201.5L387.5 170.5L418.5 170.5L449.5 201.5" stroke-width="5.17" stroke="rgba(29, 103, 26, 1)"></path><path d="M348.75 201.5 a7.75 7.75 0 1 0 15.5 0 a7.75 7.75 0 1 0 -15.5 0zM441.75 201.5 a7.75 7.75 0 1 0 15.5 0 a7.75 7.75 0 1 0 -15.5 0z" fill="rgba(29, 103, 26, 1)"></path><path d="M1193.5 387.5L1224.5 387.5L1286.5 325.5" stroke-width="5.17" stroke="rgba(29, 103, 26, 1)"></path><path d="M1185.75 387.5 a7.75 7.75 0 1 0 15.5 0 a7.75 7.75 0 1 0 -15.5 0zM1278.75 325.5 a7.75 7.75 0 1 0 15.5 0 a7.75 7.75 0 1 0 -15.5 0z" fill="rgba(29, 103, 26, 1)"></path><path d="M821.5 480.5L821.5 511.5L852.5 542.5L852.5 573.5" stroke-width="5.17" stroke="rgba(29, 103, 26, 1)"></path><path d="M813.75 480.5 a7.75 7.75 0 1 0 15.5 0 a7.75 7.75 0 1 0 -15.5 0zM844.75 573.5 a7.75 7.75 0 1 0 15.5 0 a7.75 7.75 0 1 0 -15.5 0z" fill="rgba(29, 103, 26, 1)"></path><path d="M46.5 542.5L46.5 511.5L77.5 480.5L108.5 480.5" stroke-width="5.17" stroke="rgba(29, 103, 26, 1)"></path><path d="M38.75 542.5 a7.75 7.75 0 1 0 15.5 0 a7.75 7.75 0 1 0 -15.5 0zM100.75 480.5 a7.75 7.75 0 1 0 15.5 0 a7.75 7.75 0 1 0 -15.5 0z" fill="rgba(29, 103, 26, 1)"></path><path d="M697.5 449.5L635.5 449.5" stroke-width="5.17" stroke="rgba(29, 103, 26, 1)"></path><path d="M689.75 449.5 a7.75 7.75 0 1 0 15.5 0 a7.75 7.75 0 1 0 -15.5 0zM627.75 449.5 a7.75 7.75 0 1 0 15.5 0 a7.75 7.75 0 1 0 -15.5 0z" fill="rgba(29, 103, 26, 1)"></path><path d="M418.5 46.5L294.5 46.5" stroke-width="5.17" stroke="rgba(29, 103, 26, 1)"></path><path d="M410.75 46.5 a7.75 7.75 0 1 0 15.5 0 a7.75 7.75 0 1 0 -15.5 0zM286.75 46.5 a7.75 7.75 0 1 0 15.5 0 a7.75 7.75 0 1 0 -15.5 0z" fill="rgba(29, 103, 26, 1)"></path><path d="M418.5 294.5L387.5 325.5L356.5 325.5" stroke-width="5.17" stroke="rgba(29, 103, 26, 1)"></path><path d="M410.75 294.5 a7.75 7.75 0 1 0 15.5 0 a7.75 7.75 0 1 0 -15.5 0zM348.75 325.5 a7.75 7.75 0 1 0 15.5 0 a7.75 7.75 0 1 0 -15.5 0z" fill="rgba(29, 103, 26, 1)"></path><path d="M449.5 46.5L542.5 46.5" stroke-width="5.17" stroke="rgba(29, 103, 26, 1)"></path><path d="M441.75 46.5 a7.75 7.75 0 1 0 15.5 0 a7.75 7.75 0 1 0 -15.5 0zM534.75 46.5 a7.75 7.75 0 1 0 15.5 0 a7.75 7.75 0 1 0 -15.5 0z" fill="rgba(29, 103, 26, 1)"></path><path d="M1255.5 511.5L1193.5 449.5" stroke-width="5.17" stroke="rgba(29, 103, 26, 1)"></path><path d="M1247.75 511.5 a7.75 7.75 0 1 0 15.5 0 a7.75 7.75 0 1 0 -15.5 0zM1185.75 449.5 a7.75 7.75 0 1 0 15.5 0 a7.75 7.75 0 1 0 -15.5 0z" fill="rgba(29, 103, 26, 1)"></path><path d="M666.5 511.5L604.5 573.5" stroke-width="5.17" stroke="rgba(29, 103, 26, 1)"></path><path d="M658.75 511.5 a7.75 7.75 0 1 0 15.5 0 a7.75 7.75 0 1 0 -15.5 0zM596.75 573.5 a7.75 7.75 0 1 0 15.5 0 a7.75 7.75 0 1 0 -15.5 0z" fill="rgba(29, 103, 26, 1)"></path><path d="M232.5 449.5L294.5 387.5" stroke-width="5.17" stroke="rgba(29, 103, 26, 1)"></path><path d="M224.75 449.5 a7.75 7.75 0 1 0 15.5 0 a7.75 7.75 0 1 0 -15.5 0zM286.75 387.5 a7.75 7.75 0 1 0 15.5 0 a7.75 7.75 0 1 0 -15.5 0z" fill="rgba(29, 103, 26, 1)"></path><path d="M635.5 573.5L759.5 573.5" stroke-width="5.17" stroke="rgba(29, 103, 26, 1)"></path><path d="M627.75 573.5 a7.75 7.75 0 1 0 15.5 0 a7.75 7.75 0 1 0 -15.5 0zM751.75 573.5 a7.75 7.75 0 1 0 15.5 0 a7.75 7.75 0 1 0 -15.5 0z" fill="rgba(29, 103, 26, 1)"></path><path d="M201.5 387.5L170.5 418.5L139.5 418.5L108.5 387.5L108.5 356.5" stroke-width="5.17" stroke="rgba(29, 103, 26, 1)"></path><path d="M193.75 387.5 a7.75 7.75 0 1 0 15.5 0 a7.75 7.75 0 1 0 -15.5 0zM100.75 356.5 a7.75 7.75 0 1 0 15.5 0 a7.75 7.75 0 1 0 -15.5 0z" fill="rgba(29, 103, 26, 1)"></path><path d="M821.5 325.5L821.5 387.5" stroke-width="5.17" stroke="rgba(29, 103, 26, 1)"></path><path d="M813.75 325.5 a7.75 7.75 0 1 0 15.5 0 a7.75 7.75 0 1 0 -15.5 0zM813.75 387.5 a7.75 7.75 0 1 0 15.5 0 a7.75 7.75 0 1 0 -15.5 0z" fill="rgba(29, 103, 26, 1)"></path><path d="M1286.5 480.5L1255.5 449.5L1224.5 449.5" stroke-width="5.17" stroke="rgba(29, 103, 26, 1)"></path><path d="M1278.75 480.5 a7.75 7.75 0 1 0 15.5 0 a7.75 7.75 0 1 0 -15.5 0zM1216.75 449.5 a7.75 7.75 0 1 0 15.5 0 a7.75 7.75 0 1 0 -15.5 0z" fill="rgba(29, 103, 26, 1)"></path><path d="M728.5 542.5L790.5 480.5" stroke-width="5.17" stroke="rgba(29, 103, 26, 1)"></path><path d="M720.75 542.5 a7.75 7.75 0 1 0 15.5 0 a7.75 7.75 0 1 0 -15.5 0zM782.75 480.5 a7.75 7.75 0 1 0 15.5 0 a7.75 7.75 0 1 0 -15.5 0z" fill="rgba(29, 103, 26, 1)"></path><path d="M232.5 356.5L139.5 356.5" stroke-width="5.17" stroke="rgba(29, 103, 26, 1)"></path><path d="M224.75 356.5 a7.75 7.75 0 1 0 15.5 0 a7.75 7.75 0 1 0 -15.5 0zM131.75 356.5 a7.75 7.75 0 1 0 15.5 0 a7.75 7.75 0 1 0 -15.5 0z" fill="rgba(29, 103, 26, 1)"></path><path d="M1007.5 139.5L1007.5 77.5" stroke-width="5.17" stroke="rgba(29, 103, 26, 1)"></path><path d="M999.75 139.5 a7.75 7.75 0 1 0 15.5 0 a7.75 7.75 0 1 0 -15.5 0zM999.75 77.5 a7.75 7.75 0 1 0 15.5 0 a7.75 7.75 0 1 0 -15.5 0z" fill="rgba(29, 103, 26, 1)"></path><path d="M883.5 201.5L821.5 201.5" stroke-width="5.17" stroke="rgba(29, 103, 26, 1)"></path><path d="M875.75 201.5 a7.75 7.75 0 1 0 15.5 0 a7.75 7.75 0 1 0 -15.5 0zM813.75 201.5 a7.75 7.75 0 1 0 15.5 0 a7.75 7.75 0 1 0 -15.5 0z" fill="rgba(29, 103, 26, 1)"></path></g></g><defs><mask id="SvgjsMask1028"><rect width="1440" height="560" fill="#ffffff"></rect></mask><mask id="SvgjsMask1029"><rect width="1440" height="560" fill="white"></rect><path d="M879.62 480.5 a3.88 3.88 0 1 0 7.76 0 a3.88 3.88 0 1 0 -7.76 0zM1220.62 15.5 a3.88 3.88 0 1 0 7.76 0 a3.88 3.88 0 1 0 -7.76 0z" fill="black"></path><path d="M1251.62 573.5 a3.88 3.88 0 1 0 7.76 0 a3.88 3.88 0 1 0 -7.76 0zM910.62 480.5 a3.88 3.88 0 1 0 7.76 0 a3.88 3.88 0 1 0 -7.76 0z" fill="black"></path><path d="M1437.62 542.5 a3.88 3.88 0 1 0 7.76 0 a3.88 3.88 0 1 0 -7.76 0zM1003.62 542.5 a3.88 3.88 0 1 0 7.76 0 a3.88 3.88 0 1 0 -7.76 0z" fill="black"></path><path d="M1344.62 325.5 a3.88 3.88 0 1 0 7.76 0 a3.88 3.88 0 1 0 -7.76 0zM1189.62 294.5 a3.88 3.88 0 1 0 7.76 0 a3.88 3.88 0 1 0 -7.76 0z" fill="black"></path><path d="M1096.62 542.5 a3.88 3.88 0 1 0 7.76 0 a3.88 3.88 0 1 0 -7.76 0zM1220.62 542.5 a3.88 3.88 0 1 0 7.76 0 a3.88 3.88 0 1 0 -7.76 0z" fill="black"></path><path d="M972.62 232.5 a3.88 3.88 0 1 0 7.76 0 a3.88 3.88 0 1 0 -7.76 0zM972.62 15.5 a3.88 3.88 0 1 0 7.76 0 a3.88 3.88 0 1 0 -7.76 0z" fill="black"></path><path d="M1096.62 480.5 a3.88 3.88 0 1 0 7.76 0 a3.88 3.88 0 1 0 -7.76 0zM1127.62 542.5 a3.88 3.88 0 1 0 7.76 0 a3.88 3.88 0 1 0 -7.76 0z" fill="black"></path><path d="M1189.62 46.5 a3.88 3.88 0 1 0 7.76 0 a3.88 3.88 0 1 0 -7.76 0zM1437.62 46.5 a3.88 3.88 0 1 0 7.76 0 a3.88 3.88 0 1 0 -7.76 0z" fill="black"></path><path d="M755.62 170.5 a3.88 3.88 0 1 0 7.76 0 a3.88 3.88 0 1 0 -7.76 0zM166.62 573.5 a3.88 3.88 0 1 0 7.76 0 a3.88 3.88 0 1 0 -7.76 0z" fill="black"></path><path d="M1127.62 170.5 a3.88 3.88 0 1 0 7.76 0 a3.88 3.88 0 1 0 -7.76 0zM1437.62 263.5 a3.88 3.88 0 1 0 7.76 0 a3.88 3.88 0 1 0 -7.76 0z" fill="black"></path><path d="M166.62 480.5 a3.88 3.88 0 1 0 7.76 0 a3.88 3.88 0 1 0 -7.76 0zM11.62 573.5 a3.88 3.88 0 1 0 7.76 0 a3.88 3.88 0 1 0 -7.76 0z" fill="black"></path><path d="M197.62 418.5 a3.88 3.88 0 1 0 7.76 0 a3.88 3.88 0 1 0 -7.76 0zM197.62 542.5 a3.88 3.88 0 1 0 7.76 0 a3.88 3.88 0 1 0 -7.76 0z" fill="black"></path><path d="M104.62 232.5 a3.88 3.88 0 1 0 7.76 0 a3.88 3.88 0 1 0 -7.76 0zM11.62 15.5 a3.88 3.88 0 1 0 7.76 0 a3.88 3.88 0 1 0 -7.76 0z" fill="black"></path><path d="M11.62 325.5 a3.88 3.88 0 1 0 7.76 0 a3.88 3.88 0 1 0 -7.76 0zM11.62 170.5 a3.88 3.88 0 1 0 7.76 0 a3.88 3.88 0 1 0 -7.76 0z" fill="black"></path><path d="M569.62 170.5 a3.88 3.88 0 1 0 7.76 0 a3.88 3.88 0 1 0 -7.76 0zM228.62 542.5 a3.88 3.88 0 1 0 7.76 0 a3.88 3.88 0 1 0 -7.76 0z" fill="black"></path><path d="M879.62 511.5 a3.88 3.88 0 1 0 7.76 0 a3.88 3.88 0 1 0 -7.76 0zM290.62 542.5 a3.88 3.88 0 1 0 7.76 0 a3.88 3.88 0 1 0 -7.76 0z" fill="black"></path><path d="M383.62 480.5 a3.88 3.88 0 1 0 7.76 0 a3.88 3.88 0 1 0 -7.76 0zM569.62 573.5 a3.88 3.88 0 1 0 7.76 0 a3.88 3.88 0 1 0 -7.76 0z" fill="black"></path><path d="M507.62 325.5 a3.88 3.88 0 1 0 7.76 0 a3.88 3.88 0 1 0 -7.76 0zM941.62 15.5 a3.88 3.88 0 1 0 7.76 0 a3.88 3.88 0 1 0 -7.76 0z" fill="black"></path><path d="M1189.62 418.5 a3.88 3.88 0 1 0 7.76 0 a3.88 3.88 0 1 0 -7.76 0zM1313.62 418.5 a3.88 3.88 0 1 0 7.76 0 a3.88 3.88 0 1 0 -7.76 0z" fill="black"></path><path d="M600.62 46.5 a3.88 3.88 0 1 0 7.76 0 a3.88 3.88 0 1 0 -7.76 0zM910.62 46.5 a3.88 3.88 0 1 0 7.76 0 a3.88 3.88 0 1 0 -7.76 0z" fill="black"></path><path d="M73.62 77.5 a3.88 3.88 0 1 0 7.76 0 a3.88 3.88 0 1 0 -7.76 0zM352.62 356.5 a3.88 3.88 0 1 0 7.76 0 a3.88 3.88 0 1 0 -7.76 0z" fill="black"></path><path d="M848.62 170.5 a3.88 3.88 0 1 0 7.76 0 a3.88 3.88 0 1 0 -7.76 0zM600.62 387.5 a3.88 3.88 0 1 0 7.76 0 a3.88 3.88 0 1 0 -7.76 0z" fill="black"></path><path d="M941.62 263.5 a3.88 3.88 0 1 0 7.76 0 a3.88 3.88 0 1 0 -7.76 0zM445.62 387.5 a3.88 3.88 0 1 0 7.76 0 a3.88 3.88 0 1 0 -7.76 0z" fill="black"></path><path d="M73.62 418.5 a3.88 3.88 0 1 0 7.76 0 a3.88 3.88 0 1 0 -7.76 0zM135.62 542.5 a3.88 3.88 0 1 0 7.76 0 a3.88 3.88 0 1 0 -7.76 0z" fill="black"></path><path d="M290.62 263.5 a3.88 3.88 0 1 0 7.76 0 a3.88 3.88 0 1 0 -7.76 0zM879.62 77.5 a3.88 3.88 0 1 0 7.76 0 a3.88 3.88 0 1 0 -7.76 0z" fill="black"></path><path d="M910.62 356.5 a3.88 3.88 0 1 0 7.76 0 a3.88 3.88 0 1 0 -7.76 0zM972.62 294.5 a3.88 3.88 0 1 0 7.76 0 a3.88 3.88 0 1 0 -7.76 0z" fill="black"></path><path d="M755.62 325.5 a3.88 3.88 0 1 0 7.76 0 a3.88 3.88 0 1 0 -7.76 0zM631.62 356.5 a3.88 3.88 0 1 0 7.76 0 a3.88 3.88 0 1 0 -7.76 0z" fill="black"></path><path d="M445.62 542.5 a3.88 3.88 0 1 0 7.76 0 a3.88 3.88 0 1 0 -7.76 0zM538.62 573.5 a3.88 3.88 0 1 0 7.76 0 a3.88 3.88 0 1 0 -7.76 0z" fill="black"></path><path d="M724.62 108.5 a3.88 3.88 0 1 0 7.76 0 a3.88 3.88 0 1 0 -7.76 0zM848.62 77.5 a3.88 3.88 0 1 0 7.76 0 a3.88 3.88 0 1 0 -7.76 0z" fill="black"></path><path d="M73.62 46.5 a3.88 3.88 0 1 0 7.76 0 a3.88 3.88 0 1 0 -7.76 0zM662.62 15.5 a3.88 3.88 0 1 0 7.76 0 a3.88 3.88 0 1 0 -7.76 0z" fill="black"></path><path d="M42.62 356.5 a3.88 3.88 0 1 0 7.76 0 a3.88 3.88 0 1 0 -7.76 0zM166.62 449.5 a3.88 3.88 0 1 0 7.76 0 a3.88 3.88 0 1 0 -7.76 0z" fill="black"></path><path d="M817.62 77.5 a3.88 3.88 0 1 0 7.76 0 a3.88 3.88 0 1 0 -7.76 0zM228.62 77.5 a3.88 3.88 0 1 0 7.76 0 a3.88 3.88 0 1 0 -7.76 0z" fill="black"></path><path d="M1096.62 356.5 a3.88 3.88 0 1 0 7.76 0 a3.88 3.88 0 1 0 -7.76 0zM1189.62 263.5 a3.88 3.88 0 1 0 7.76 0 a3.88 3.88 0 1 0 -7.76 0z" fill="black"></path><path d="M1437.62 170.5 a3.88 3.88 0 1 0 7.76 0 a3.88 3.88 0 1 0 -7.76 0zM1065.62 77.5 a3.88 3.88 0 1 0 7.76 0 a3.88 3.88 0 1 0 -7.76 0z" fill="black"></path><path d="M1375.62 77.5 a3.88 3.88 0 1 0 7.76 0 a3.88 3.88 0 1 0 -7.76 0zM1096.62 46.5 a3.88 3.88 0 1 0 7.76 0 a3.88 3.88 0 1 0 -7.76 0z" fill="black"></path><path d="M848.62 294.5 a3.88 3.88 0 1 0 7.76 0 a3.88 3.88 0 1 0 -7.76 0zM848.62 418.5 a3.88 3.88 0 1 0 7.76 0 a3.88 3.88 0 1 0 -7.76 0z" fill="black"></path><path d="M73.62 139.5 a3.88 3.88 0 1 0 7.76 0 a3.88 3.88 0 1 0 -7.76 0zM228.62 480.5 a3.88 3.88 0 1 0 7.76 0 a3.88 3.88 0 1 0 -7.76 0z" fill="black"></path><path d="M1220.62 139.5 a3.88 3.88 0 1 0 7.76 0 a3.88 3.88 0 1 0 -7.76 0zM1220.62 77.5 a3.88 3.88 0 1 0 7.76 0 a3.88 3.88 0 1 0 -7.76 0z" fill="black"></path><path d="M228.62 325.5 a3.88 3.88 0 1 0 7.76 0 a3.88 3.88 0 1 0 -7.76 0zM104.62 170.5 a3.88 3.88 0 1 0 7.76 0 a3.88 3.88 0 1 0 -7.76 0z" fill="black"></path><path d="M507.62 542.5 a3.88 3.88 0 1 0 7.76 0 a3.88 3.88 0 1 0 -7.76 0zM290.62 573.5 a3.88 3.88 0 1 0 7.76 0 a3.88 3.88 0 1 0 -7.76 0z" fill="black"></path><path d="M755.62 294.5 a3.88 3.88 0 1 0 7.76 0 a3.88 3.88 0 1 0 -7.76 0zM662.62 325.5 a3.88 3.88 0 1 0 7.76 0 a3.88 3.88 0 1 0 -7.76 0z" fill="black"></path><path d="M414.62 139.5 a3.88 3.88 0 1 0 7.76 0 a3.88 3.88 0 1 0 -7.76 0zM476.62 201.5 a3.88 3.88 0 1 0 7.76 0 a3.88 3.88 0 1 0 -7.76 0z" fill="black"></path><path d="M786.62 449.5 a3.88 3.88 0 1 0 7.76 0 a3.88 3.88 0 1 0 -7.76 0zM414.62 449.5 a3.88 3.88 0 1 0 7.76 0 a3.88 3.88 0 1 0 -7.76 0z" fill="black"></path><path d="M1189.62 325.5 a3.88 3.88 0 1 0 7.76 0 a3.88 3.88 0 1 0 -7.76 0zM1158.62 418.5 a3.88 3.88 0 1 0 7.76 0 a3.88 3.88 0 1 0 -7.76 0z" fill="black"></path><path d="M135.62 263.5 a3.88 3.88 0 1 0 7.76 0 a3.88 3.88 0 1 0 -7.76 0zM42.62 325.5 a3.88 3.88 0 1 0 7.76 0 a3.88 3.88 0 1 0 -7.76 0z" fill="black"></path><path d="M197.62 294.5 a3.88 3.88 0 1 0 7.76 0 a3.88 3.88 0 1 0 -7.76 0zM73.62 356.5 a3.88 3.88 0 1 0 7.76 0 a3.88 3.88 0 1 0 -7.76 0z" fill="black"></path><path d="M1375.62 387.5 a3.88 3.88 0 1 0 7.76 0 a3.88 3.88 0 1 0 -7.76 0zM1375.62 511.5 a3.88 3.88 0 1 0 7.76 0 a3.88 3.88 0 1 0 -7.76 0z" fill="black"></path><path d="M197.62 139.5 a3.88 3.88 0 1 0 7.76 0 a3.88 3.88 0 1 0 -7.76 0zM445.62 232.5 a3.88 3.88 0 1 0 7.76 0 a3.88 3.88 0 1 0 -7.76 0z" fill="black"></path><path d="M879.62 325.5 a3.88 3.88 0 1 0 7.76 0 a3.88 3.88 0 1 0 -7.76 0zM879.62 418.5 a3.88 3.88 0 1 0 7.76 0 a3.88 3.88 0 1 0 -7.76 0z" fill="black"></path><path d="M1406.62 325.5 a3.88 3.88 0 1 0 7.76 0 a3.88 3.88 0 1 0 -7.76 0zM1313.62 294.5 a3.88 3.88 0 1 0 7.76 0 a3.88 3.88 0 1 0 -7.76 0z" fill="black"></path><path d="M476.62 139.5 a3.88 3.88 0 1 0 7.76 0 a3.88 3.88 0 1 0 -7.76 0zM104.62 77.5 a3.88 3.88 0 1 0 7.76 0 a3.88 3.88 0 1 0 -7.76 0z" fill="black"></path><path d="M1251.62 139.5 a3.88 3.88 0 1 0 7.76 0 a3.88 3.88 0 1 0 -7.76 0zM1344.62 77.5 a3.88 3.88 0 1 0 7.76 0 a3.88 3.88 0 1 0 -7.76 0z" fill="black"></path><path d="M569.62 294.5 a3.88 3.88 0 1 0 7.76 0 a3.88 3.88 0 1 0 -7.76 0zM879.62 232.5 a3.88 3.88 0 1 0 7.76 0 a3.88 3.88 0 1 0 -7.76 0z" fill="black"></path><path d="M1313.62 480.5 a3.88 3.88 0 1 0 7.76 0 a3.88 3.88 0 1 0 -7.76 0zM1313.62 542.5 a3.88 3.88 0 1 0 7.76 0 a3.88 3.88 0 1 0 -7.76 0z" fill="black"></path><path d="M228.62 387.5 a3.88 3.88 0 1 0 7.76 0 a3.88 3.88 0 1 0 -7.76 0zM290.62 356.5 a3.88 3.88 0 1 0 7.76 0 a3.88 3.88 0 1 0 -7.76 0z" fill="black"></path><path d="M538.62 139.5 a3.88 3.88 0 1 0 7.76 0 a3.88 3.88 0 1 0 -7.76 0zM631.62 108.5 a3.88 3.88 0 1 0 7.76 0 a3.88 3.88 0 1 0 -7.76 0z" fill="black"></path><path d="M1344.62 170.5 a3.88 3.88 0 1 0 7.76 0 a3.88 3.88 0 1 0 -7.76 0zM1406.62 77.5 a3.88 3.88 0 1 0 7.76 0 a3.88 3.88 0 1 0 -7.76 0z" fill="black"></path><path d="M941.62 139.5 a3.88 3.88 0 1 0 7.76 0 a3.88 3.88 0 1 0 -7.76 0zM941.62 77.5 a3.88 3.88 0 1 0 7.76 0 a3.88 3.88 0 1 0 -7.76 0z" fill="black"></path><path d="M259.62 15.5 a3.88 3.88 0 1 0 7.76 0 a3.88 3.88 0 1 0 -7.76 0zM42.62 139.5 a3.88 3.88 0 1 0 7.76 0 a3.88 3.88 0 1 0 -7.76 0z" fill="black"></path><path d="M600.62 325.5 a3.88 3.88 0 1 0 7.76 0 a3.88 3.88 0 1 0 -7.76 0zM538.62 356.5 a3.88 3.88 0 1 0 7.76 0 a3.88 3.88 0 1 0 -7.76 0z" fill="black"></path><path d="M1065.62 232.5 a3.88 3.88 0 1 0 7.76 0 a3.88 3.88 0 1 0 -7.76 0zM1158.62 232.5 a3.88 3.88 0 1 0 7.76 0 a3.88 3.88 0 1 0 -7.76 0z" fill="black"></path><path d="M1158.62 263.5 a3.88 3.88 0 1 0 7.76 0 a3.88 3.88 0 1 0 -7.76 0zM1065.62 263.5 a3.88 3.88 0 1 0 7.76 0 a3.88 3.88 0 1 0 -7.76 0z" fill="black"></path><path d="M724.62 15.5 a3.88 3.88 0 1 0 7.76 0 a3.88 3.88 0 1 0 -7.76 0zM910.62 15.5 a3.88 3.88 0 1 0 7.76 0 a3.88 3.88 0 1 0 -7.76 0z" fill="black"></path><path d="M73.62 449.5 a3.88 3.88 0 1 0 7.76 0 a3.88 3.88 0 1 0 -7.76 0zM11.62 542.5 a3.88 3.88 0 1 0 7.76 0 a3.88 3.88 0 1 0 -7.76 0z" fill="black"></path><path d="M1158.62 108.5 a3.88 3.88 0 1 0 7.76 0 a3.88 3.88 0 1 0 -7.76 0zM1158.62 46.5 a3.88 3.88 0 1 0 7.76 0 a3.88 3.88 0 1 0 -7.76 0z" fill="black"></path><path d="M352.62 201.5 a3.88 3.88 0 1 0 7.76 0 a3.88 3.88 0 1 0 -7.76 0zM445.62 201.5 a3.88 3.88 0 1 0 7.76 0 a3.88 3.88 0 1 0 -7.76 0z" fill="black"></path><path d="M1189.62 387.5 a3.88 3.88 0 1 0 7.76 0 a3.88 3.88 0 1 0 -7.76 0zM1282.62 325.5 a3.88 3.88 0 1 0 7.76 0 a3.88 3.88 0 1 0 -7.76 0z" fill="black"></path><path d="M817.62 480.5 a3.88 3.88 0 1 0 7.76 0 a3.88 3.88 0 1 0 -7.76 0zM848.62 573.5 a3.88 3.88 0 1 0 7.76 0 a3.88 3.88 0 1 0 -7.76 0z" fill="black"></path><path d="M42.62 542.5 a3.88 3.88 0 1 0 7.76 0 a3.88 3.88 0 1 0 -7.76 0zM104.62 480.5 a3.88 3.88 0 1 0 7.76 0 a3.88 3.88 0 1 0 -7.76 0z" fill="black"></path><path d="M693.62 449.5 a3.88 3.88 0 1 0 7.76 0 a3.88 3.88 0 1 0 -7.76 0zM631.62 449.5 a3.88 3.88 0 1 0 7.76 0 a3.88 3.88 0 1 0 -7.76 0z" fill="black"></path><path d="M414.62 46.5 a3.88 3.88 0 1 0 7.76 0 a3.88 3.88 0 1 0 -7.76 0zM290.62 46.5 a3.88 3.88 0 1 0 7.76 0 a3.88 3.88 0 1 0 -7.76 0z" fill="black"></path><path d="M414.62 294.5 a3.88 3.88 0 1 0 7.76 0 a3.88 3.88 0 1 0 -7.76 0zM352.62 325.5 a3.88 3.88 0 1 0 7.76 0 a3.88 3.88 0 1 0 -7.76 0z" fill="black"></path><path d="M445.62 46.5 a3.88 3.88 0 1 0 7.76 0 a3.88 3.88 0 1 0 -7.76 0zM538.62 46.5 a3.88 3.88 0 1 0 7.76 0 a3.88 3.88 0 1 0 -7.76 0z" fill="black"></path><path d="M1251.62 511.5 a3.88 3.88 0 1 0 7.76 0 a3.88 3.88 0 1 0 -7.76 0zM1189.62 449.5 a3.88 3.88 0 1 0 7.76 0 a3.88 3.88 0 1 0 -7.76 0z" fill="black"></path><path d="M662.62 511.5 a3.88 3.88 0 1 0 7.76 0 a3.88 3.88 0 1 0 -7.76 0zM600.62 573.5 a3.88 3.88 0 1 0 7.76 0 a3.88 3.88 0 1 0 -7.76 0z" fill="black"></path><path d="M228.62 449.5 a3.88 3.88 0 1 0 7.76 0 a3.88 3.88 0 1 0 -7.76 0zM290.62 387.5 a3.88 3.88 0 1 0 7.76 0 a3.88 3.88 0 1 0 -7.76 0z" fill="black"></path><path d="M631.62 573.5 a3.88 3.88 0 1 0 7.76 0 a3.88 3.88 0 1 0 -7.76 0zM755.62 573.5 a3.88 3.88 0 1 0 7.76 0 a3.88 3.88 0 1 0 -7.76 0z" fill="black"></path><path d="M197.62 387.5 a3.88 3.88 0 1 0 7.76 0 a3.88 3.88 0 1 0 -7.76 0zM104.62 356.5 a3.88 3.88 0 1 0 7.76 0 a3.88 3.88 0 1 0 -7.76 0z" fill="black"></path><path d="M817.62 325.5 a3.88 3.88 0 1 0 7.76 0 a3.88 3.88 0 1 0 -7.76 0zM817.62 387.5 a3.88 3.88 0 1 0 7.76 0 a3.88 3.88 0 1 0 -7.76 0z" fill="black"></path><path d="M1282.62 480.5 a3.88 3.88 0 1 0 7.76 0 a3.88 3.88 0 1 0 -7.76 0zM1220.62 449.5 a3.88 3.88 0 1 0 7.76 0 a3.88 3.88 0 1 0 -7.76 0z" fill="black"></path><path d="M724.62 542.5 a3.88 3.88 0 1 0 7.76 0 a3.88 3.88 0 1 0 -7.76 0zM786.62 480.5 a3.88 3.88 0 1 0 7.76 0 a3.88 3.88 0 1 0 -7.76 0z" fill="black"></path><path d="M228.62 356.5 a3.88 3.88 0 1 0 7.76 0 a3.88 3.88 0 1 0 -7.76 0zM135.62 356.5 a3.88 3.88 0 1 0 7.76 0 a3.88 3.88 0 1 0 -7.76 0z" fill="black"></path><path d="M1003.62 139.5 a3.88 3.88 0 1 0 7.76 0 a3.88 3.88 0 1 0 -7.76 0zM1003.62 77.5 a3.88 3.88 0 1 0 7.76 0 a3.88 3.88 0 1 0 -7.76 0z" fill="black"></path><path d="M879.62 201.5 a3.88 3.88 0 1 0 7.76 0 a3.88 3.88 0 1 0 -7.76 0zM817.62 201.5 a3.88 3.88 0 1 0 7.76 0 a3.88 3.88 0 1 0 -7.76 0z" fill="black"></path></mask></defs></svg>